<?xml version="1.0" encoding="utf-8"?>
<!-- Generator: Adobe Illustrator 23.0.5, SVG Export Plug-In . SVG Version: 6.00 Build 0)  -->
<svg version="1.1" id="Layer_1" xmlns="http://www.w3.org/2000/svg" xmlns:xlink="http://www.w3.org/1999/xlink" x="0px" y="0px"
	 viewBox="0 0 308.6 370" style="enable-background:new 0 0 308.6 370;" xml:space="preserve">
<style type="text/css">
	.st0{fill:#FFF0AC;}
	.st1{fill:#FCE18E;}
	.st2{fill:#FFFFFF;}
	.st3{fill:#7D98AF;}
	.st4{fill:#3C5D76;}
	.st5{fill:#FBB476;}
	.st6{fill:#FFD978;}
	.st7{fill:#F4A34F;}
	.st8{fill:#988575;}
	.st9{fill:#E8683C;}
	.st10{fill:#FFF8D0;}
	.st11{fill:#FFFDF1;}
	.st12{fill:#764C2F;}
	.st13{fill:#E08669;}
	.st14{fill:#FFE066;}
	.st15{fill:#C8DF6A;}
	.st16{fill:#FAE5C4;}
	.st17{fill:#4D5052;}
	.st18{fill:#8B8E91;}
	.st19{fill:#F7BE5E;}
	.st20{fill:#5A391E;}
	.st21{fill:#E7CAAF;}
	.st22{fill:#F1DFCB;}
	.st23{fill:#32404F;}
	.st24{fill:#435364;}
	.st25{fill:#657C8F;}
	.st26{opacity:0.27;fill:#F1DFCB;}
	.st27{fill:#68516F;}
	.st28{fill:#644136;}
	.st29{fill:#63441D;}
	.st30{fill:#BC9361;}
	.st31{fill:#E0DECB;}
	.st32{fill:#93A3A4;}
	.st33{fill:#724D2F;}
	.st34{fill:#5D3D23;}
	.st35{fill:#263A57;}
	.st36{fill:#6B6161;}
	.st37{fill:#646669;}
	.st38{fill:#AEB0B3;}
</style>
<g>
	<ellipse class="st0" cx="140" cy="247.6" rx="107.4" ry="103.1"/>
	<g>
		<polygon class="st1" points="113.5,342.4 125.8,342.4 125.8,269.8 134,269.8 119.6,244.9 105.3,269.8 113.5,269.8 		"/>
		<polygon class="st2" points="87,341.8 105.4,341.8 105.4,282.6 117.6,282.6 96.2,245.4 74.7,282.6 87,282.6 		"/>
		<polygon class="st2" points="208.7,341.8 219.1,341.8 219.1,290.3 226,290.3 213.9,269.3 201.8,290.3 208.7,290.3 		"/>
		<polygon class="st3" points="156.9,341.8 180.9,341.8 180.9,251.5 196.9,251.5 168.9,202.9 140.9,251.5 156.9,251.5 		"/>
		<polygon class="st4" points="123,341.8 147.1,341.8 147.1,322.8 163.3,322.8 135.1,273.9 106.9,322.8 123,322.8 		"/>
	</g>
	<g>
		<path class="st5" d="M112,306.7c-0.2-0.9-0.5-1.7-0.8-2.6l3.6-3.4c-1.1-2.6-2.5-5.1-4.2-7.3l-4.8,1.4c-1.2-1.4-2.4-2.6-3.8-3.8
			l1.4-4.8c-2.3-1.7-4.7-3.1-7.3-4.2l-3.5,3.6c-1.7-0.6-3.4-1.1-5.2-1.4l-1.2-4.8c-2.8-0.3-5.6-0.4-8.4,0l-1.2,4.8
			c-0.9,0.2-1.7,0.3-2.6,0.6c-0.9,0.2-1.7,0.5-2.6,0.8l-3.4-3.6c-2.6,1.1-5.1,2.5-7.3,4.2l1.4,4.8c-1.4,1.2-2.6,2.4-3.8,3.8
			l-4.8-1.4c-1.7,2.3-3.1,4.7-4.2,7.3l3.6,3.5c-0.6,1.7-1.1,3.4-1.4,5.2l-4.8,1.2c-0.3,2.8-0.3,5.6,0,8.4l4.8,1.2
			c0.2,0.9,0.3,1.7,0.6,2.6c0.2,0.9,0.5,1.7,0.8,2.6l-3.6,3.4c1.1,2.6,2.5,5.1,4.2,7.3l4.8-1.4c1.2,1.4,2.4,2.6,3.8,3.8l-1.4,4.8
			c2.3,1.7,4.7,3.1,7.3,4.2l3.5-3.6c1.7,0.6,3.4,1.1,5.2,1.4l1.2,4.8c2.8,0.3,5.6,0.4,8.4,0l1.2-4.8c0.9-0.2,1.7-0.3,2.6-0.6
			c0.9-0.2,1.7-0.5,2.6-0.8l3.4,3.6c2.6-1.1,5.1-2.5,7.3-4.2l-1.4-4.8c1.4-1.2,2.6-2.4,3.8-3.8l4.8,1.4c1.7-2.3,3.1-4.7,4.2-7.3
			l-3.6-3.5c0.6-1.7,1.1-3.4,1.4-5.2l4.8-1.2c0.3-2.8,0.4-5.6,0-8.4l-4.8-1.2C112.5,308.4,112.3,307.6,112,306.7z M88.5,338.9
			c-13.4,3.6-27.1-4.4-30.6-17.8c-3.6-13.4,4.4-27.1,17.8-30.6c13.4-3.6,27.1,4.4,30.6,17.8C109.8,321.6,101.9,335.3,88.5,338.9z"/>
		<path class="st5" d="M97.8,310.5c2.3,8.7-2.9,17.7-11.6,20c-8.7,2.3-17.7-2.9-20-11.6c-2.3-8.7,2.9-17.7,11.6-20
			C86.6,296.6,95.5,301.8,97.8,310.5z"/>
	</g>
	<ellipse class="st4" cx="140" cy="350.7" rx="116.1" ry="10.1"/>
	<g>
		<g>
			<g>
				<path class="st6" d="M252.8,130.1V161h30.9C283.7,144,269.9,130.1,252.8,130.1z"/>
				<path class="st7" d="M249.3,133.6C249.3,133.6,249.3,133.6,249.3,133.6c-17.1,0-30.9,13.9-30.9,30.9c0,17.1,13.9,30.9,30.9,30.9
					c17.1,0,30.9-13.9,30.9-30.9h-30.9V133.6z"/>
			</g>
		</g>
		<g>
			<g>
				<polygon class="st8" points="266.4,149.7 265.9,149.2 278.7,136.4 293.1,136.4 293.1,137.1 279.1,137.1 				"/>
			</g>
			<g>
				<path class="st8" d="M267.2,150.1c0,0.9-0.7,1.6-1.6,1.6c-0.9,0-1.6-0.7-1.6-1.6c0-0.9,0.7-1.6,1.6-1.6
					C266.5,148.6,267.2,149.3,267.2,150.1z"/>
			</g>
		</g>
		<g>
			<g>
				<polygon class="st8" points="293.1,178.6 278.7,178.6 271.8,171.6 272.3,171.1 279.1,177.8 293.1,177.8 				"/>
			</g>
			<g>
				<path class="st8" d="M273.7,171.4c0,0.9-0.7,1.6-1.6,1.6c-0.9,0-1.6-0.7-1.6-1.6c0-0.9,0.7-1.6,1.6-1.6
					C272.9,169.8,273.7,170.5,273.7,171.4z"/>
			</g>
		</g>
		<path class="st6" d="M299.4,140.2h-12.6c-0.8,0-1.4-0.6-1.4-1.4v-4.4c0-0.8,0.6-1.4,1.4-1.4h12.6c0.8,0,1.4,0.6,1.4,1.4v4.4
			C300.8,139.5,300.2,140.2,299.4,140.2z"/>
		<path class="st7" d="M299.4,181.3h-12.6c-0.8,0-1.4-0.6-1.4-1.4v-4.4c0-0.8,0.6-1.4,1.4-1.4h12.6c0.8,0,1.4,0.6,1.4,1.4v4.4
			C300.8,180.7,300.2,181.3,299.4,181.3z"/>
	</g>
	<g>
		<path class="st2" d="M115.5,195.9c0,1.3-1.1,2.4-2.4,2.4c-1.3,0-2.4-1.1-2.4-2.4c0-1.3,1.1-2.4,2.4-2.4
			C114.4,193.5,115.5,194.6,115.5,195.9z"/>
		<circle class="st9" cx="257.6" cy="215.1" r="3.8"/>
		<circle class="st9" cx="21.7" cy="219.9" r="2"/>
		<circle class="st0" cx="21.7" cy="177.7" r="1.3"/>
		<circle class="st0" cx="256" cy="290.9" r="1.3"/>
		<path class="st10" d="M242.7,119.9c0,1.2-1,2.2-2.2,2.2c-1.2,0-2.2-1-2.2-2.2c0-1.2,1-2.2,2.2-2.2
			C241.7,117.7,242.7,118.7,242.7,119.9z"/>
		<path class="st2" d="M109.7,147.6l1-7c0.1-0.4-0.3-0.7-0.7-0.6l-7.2,2.5c-0.4,0.1-0.5,0.7-0.1,0.9l6.2,4.4
			C109.2,148.1,109.6,147.9,109.7,147.6z"/>
		<path class="st9" d="M107.4,244.2l0.7-4.8c0-0.3-0.2-0.5-0.5-0.4l-4.9,1.8c-0.3,0.1-0.3,0.5-0.1,0.6l4.3,3
			C107.1,244.6,107.4,244.5,107.4,244.2z"/>
		<path class="st0" d="M40.2,102.7l-2.1-2.1l2.1-2.1c0.5-0.5,0.5-1.2,0-1.7c-0.5-0.5-1.2-0.5-1.7,0l-2.1,2.1l-2.1-2.1
			c-0.5-0.5-1.2-0.5-1.7,0c-0.5,0.5-0.5,1.2,0,1.7l2.1,2.1l-2.1,2.1c-0.5,0.5-0.5,1.2,0,1.7c0.5,0.5,1.2,0.5,1.7,0l2.1-2.1l2.1,2.1
			c0.5,0.5,1.2,0.5,1.7,0C40.7,103.9,40.7,103.1,40.2,102.7z"/>
		<path class="st9" d="M246.3,306.6l-1.1-1.1l1.1-1.1c0.2-0.2,0.2-0.6,0-0.9c-0.2-0.2-0.6-0.2-0.9,0l-1.1,1.1l-1.1-1.1
			c-0.2-0.2-0.6-0.2-0.9,0c-0.2,0.2-0.2,0.6,0,0.9l1.1,1.1l-1.1,1.1c-0.2,0.2-0.2,0.6,0,0.9c0.2,0.2,0.6,0.2,0.9,0l1.1-1.1l1.1,1.1
			c0.2,0.2,0.6,0.2,0.9,0C246.5,307.2,246.5,306.9,246.3,306.6z"/>
		<path class="st5" d="M39.4,273.7l-2.8-0.2l0.2-2.8c0-0.6-0.4-1.2-1.1-1.2c-0.6,0-1.2,0.4-1.2,1.1l-0.2,2.8l-2.8-0.2
			c-0.6,0-1.2,0.4-1.2,1.1c0,0.6,0.4,1.2,1.1,1.2l2.8,0.2l-0.2,2.8c0,0.6,0.4,1.2,1.1,1.2c0.6,0,1.2-0.4,1.2-1.1l0.2-2.8l2.8,0.2
			c0.6,0,1.2-0.4,1.2-1.1C40.5,274.3,40.1,273.8,39.4,273.7z"/>
		<path class="st5" d="M228.2,52.2l-2.8-0.2l0.2-2.8c0-0.6-0.4-1.2-1.1-1.2c-0.6,0-1.2,0.4-1.2,1.1l-0.2,2.8l-2.8-0.2
			c-0.6,0-1.2,0.4-1.2,1.1c0,0.6,0.4,1.2,1.1,1.2l2.8,0.2l-0.2,2.8c0,0.6,0.4,1.2,1.1,1.2c0.6,0,1.2-0.4,1.2-1.1l0.2-2.8l2.8,0.2
			c0.6,0,1.2-0.4,1.2-1.1C229.3,52.7,228.8,52.2,228.2,52.2z"/>
	</g>
	<path class="st2" d="M184,339c-0.6,0-1-0.4-1.1-1c0-0.6,0.4-1.1,1-1.1c1.1-0.1,2.2-0.2,3.3-0.5c0.6-0.1,1.1,0.2,1.3,0.8
		c0.1,0.6-0.2,1.1-0.8,1.3C186.5,338.7,185.3,338.9,184,339C184.1,339,184,339,184,339z M177.7,338.5c-0.1,0-0.2,0-0.2,0
		c-1.2-0.3-2.4-0.6-3.5-1.1c-0.5-0.2-0.8-0.8-0.6-1.4c0.2-0.5,0.8-0.8,1.4-0.6c1,0.4,2.1,0.8,3.2,1c0.6,0.1,0.9,0.7,0.8,1.3
		C178.6,338.2,178.2,338.5,177.7,338.5z M193.4,336.2c-0.4,0-0.7-0.2-0.9-0.5c-0.3-0.5-0.1-1.2,0.4-1.4c1-0.5,1.9-1.2,2.8-1.9
		c0.5-0.4,1.1-0.3,1.5,0.2c0.4,0.5,0.3,1.1-0.2,1.5c-1,0.8-2,1.5-3.1,2.1C193.8,336.2,193.6,336.2,193.4,336.2z M168.9,334.2
		c-0.2,0-0.5-0.1-0.7-0.2c-1-0.8-1.9-1.6-2.7-2.5c-0.4-0.4-0.4-1.1,0.1-1.5c0.4-0.4,1.1-0.4,1.5,0.1c0.8,0.8,1.6,1.6,2.5,2.3
		c0.5,0.4,0.5,1,0.2,1.5C169.5,334.1,169.2,334.2,168.9,334.2z M200.7,329.6c-0.2,0-0.4-0.1-0.6-0.2c-0.5-0.3-0.6-1-0.3-1.5
		c0.6-0.9,1.2-1.9,1.7-2.9c0.3-0.5,0.9-0.7,1.4-0.5c0.5,0.3,0.8,0.9,0.5,1.4c-0.5,1.1-1.2,2.2-1.9,3.2
		C201.3,329.4,201,329.6,200.7,329.6z M162.7,326.6c-0.4,0-0.8-0.2-1-0.6c-0.5-1.1-1-2.3-1.3-3.4c-0.2-0.6,0.2-1.2,0.7-1.3
		c0.6-0.2,1.2,0.2,1.3,0.7c0.3,1.1,0.7,2.1,1.2,3.1c0.3,0.5,0,1.2-0.5,1.4C163,326.6,162.9,326.6,162.7,326.6z M204.3,320.5
		c-0.1,0-0.1,0-0.2,0c-0.6-0.1-1-0.6-0.9-1.2c0.2-1.1,0.3-2.2,0.3-3.3c0-0.6,0.5-1.1,1.1-1.1c0.6,0,1.1,0.4,1.1,1h-1.1l1.1,0.1
		c0,1.3-0.1,2.5-0.3,3.7C205.3,320.1,204.8,320.5,204.3,320.5z M160.5,317c-0.6,0-1.1-0.5-1.1-1v0c0-1.2,0.1-2.4,0.3-3.6
		c0.1-0.6,0.6-1,1.2-0.9c0.6,0.1,1,0.6,0.9,1.2c-0.2,1.1-0.3,2.2-0.3,3.3C161.6,316.5,161.1,317,160.5,317z M203.7,310.6
		c-0.5,0-0.9-0.3-1-0.8c-0.3-1.1-0.7-2.1-1.2-3.1c-0.3-0.5,0-1.2,0.5-1.4c0.5-0.3,1.2,0,1.4,0.5c0.5,1.1,1,2.3,1.3,3.4
		c0.2,0.6-0.2,1.2-0.7,1.3C203.9,310.6,203.8,310.6,203.7,310.6z M162.7,307.5c-0.2,0-0.3,0-0.5-0.1c-0.5-0.3-0.8-0.9-0.5-1.4
		c0.5-1.1,1.2-2.2,1.9-3.2c0.3-0.5,1-0.6,1.5-0.3c0.5,0.3,0.6,1,0.3,1.5c-0.6,0.9-1.2,1.9-1.7,2.9
		C163.5,307.3,163.1,307.5,162.7,307.5z M198.8,302.1c-0.3,0-0.6-0.1-0.8-0.3c-0.8-0.8-1.6-1.6-2.5-2.3c-0.5-0.4-0.5-1-0.2-1.5
		c0.4-0.5,1-0.5,1.5-0.2c1,0.8,1.9,1.6,2.7,2.5c0.4,0.4,0.4,1.1-0.1,1.5C199.3,302,199.1,302.1,198.8,302.1z M168.8,299.8
		c-0.3,0-0.6-0.1-0.8-0.4c-0.4-0.5-0.3-1.1,0.2-1.5c1-0.8,2-1.5,3.1-2.1c0.5-0.3,1.2-0.1,1.5,0.4c0.3,0.5,0.1,1.2-0.4,1.5
		c-1,0.5-1.9,1.2-2.8,1.9C169.3,299.7,169,299.8,168.8,299.8z M190.8,296.5c-0.1,0-0.3,0-0.4-0.1c-1-0.4-2.1-0.8-3.2-1
		c-0.6-0.1-0.9-0.7-0.8-1.3c0.1-0.6,0.7-0.9,1.3-0.8c1.2,0.3,2.4,0.6,3.5,1.1c0.5,0.2,0.8,0.8,0.6,1.4
		C191.6,296.3,191.2,296.5,190.8,296.5z M177.6,295.5c-0.5,0-0.9-0.3-1-0.8c-0.1-0.6,0.2-1.1,0.8-1.3c1.2-0.3,2.4-0.5,3.7-0.5
		c0.6-0.1,1.1,0.4,1.1,1c0,0.6-0.4,1.1-1,1.1c-1.1,0.1-2.2,0.2-3.3,0.5C177.8,295.5,177.7,295.5,177.6,295.5z"/>
	<g>
		<path class="st11" d="M198.9,132.3H80.7c-4.7,0-8.6-3.8-8.6-8.6v-72h135.4v72C207.4,128.4,203.6,132.3,198.9,132.3z"/>
		<rect x="72.1" y="46.5" class="st7" width="135.4" height="8.1"/>
		<g>
			<rect x="81" y="115.8" class="st3" width="117.6" height="1.9"/>
			<rect x="81" y="120.3" class="st3" width="73.8" height="1.9"/>
		</g>
		<g>
			
				<rect x="71.4" y="87.7" transform="matrix(6.123234e-17 -1 1 6.123234e-17 0.821 184.7655)" class="st12" width="42.8" height="8.5"/>
			
				<rect x="100.3" y="103.2" transform="matrix(6.123234e-17 -1 1 6.123234e-17 -1.2579 213.6839)" class="st1" width="11.8" height="8.5"/>
			
				<rect x="101.8" y="91.3" transform="matrix(6.123234e-17 -1 1 6.123234e-17 24.0485 215.2171)" class="st12" width="35.6" height="8.5"/>
			
				<rect x="109.2" y="85.3" transform="matrix(6.123234e-17 -1 1 6.123234e-17 43.4608 222.6443)" class="st1" width="47.6" height="8.5"/>
			
				<rect x="120.1" y="82.8" transform="matrix(6.123234e-17 -1 1 6.123234e-17 59.4692 233.4756)" class="st12" width="52.8" height="8.5"/>
			
				<rect x="146.7" y="96" transform="matrix(6.123234e-17 -1 1 6.123234e-17 59.693 260.0913)" class="st1" width="26.4" height="8.5"/>
			
				<rect x="149.5" y="85.3" transform="matrix(6.123234e-17 -1 1 6.123234e-17 83.7202 262.9037)" class="st12" width="47.6" height="8.5"/>
			
				<rect x="167.5" y="89.9" transform="matrix(6.123234e-17 -1 1 6.123234e-17 92.6068 280.8566)" class="st1" width="38.5" height="8.5"/>
		</g>
	</g>
	<g>
		<g>
			<path class="st7" d="M187.1,268.9h-47.7c-4,0-7.2-3.2-7.2-7.2V217c0-4,3.2-7.2,7.2-7.2h47.7c4,0,7.2,3.2,7.2,7.2v44.7
				C194.3,265.7,191,268.9,187.1,268.9z"/>
			<path class="st0" d="M191.4,223.5h-56.3c0,0,0,0,0,0v38.2c0,2.4,1.9,4.3,4.3,4.3h47.7c2.4,0,4.3-1.9,4.3-4.3V223.5z"/>
		</g>
		<g>
			<rect x="164" y="225.9" class="st5" width="21.9" height="5.3"/>
			<rect x="138.7" y="234.7" class="st5" width="47.2" height="2.6"/>
			<rect x="138.7" y="239.2" class="st5" width="47.2" height="2.6"/>
			<rect x="138.7" y="259.2" class="st5" width="16.9" height="2.6"/>
			<rect x="138.7" y="255.2" class="st5" width="16.9" height="2.6"/>
		</g>
		<g>
			<path class="st13" d="M144.3,217.5c0,1.3-1.1,2.4-2.4,2.4c-1.3,0-2.4-1.1-2.4-2.4c0-1.3,1.1-2.4,2.4-2.4
				C143.2,215.1,144.3,216.2,144.3,217.5z"/>
			<path class="st14" d="M151.7,217.5c0,1.3-1.1,2.4-2.4,2.4c-1.3,0-2.4-1.1-2.4-2.4c0-1.3,1.1-2.4,2.4-2.4
				C150.6,215.1,151.7,216.2,151.7,217.5z"/>
			<path class="st15" d="M159.1,217.5c0,1.3-1.1,2.4-2.4,2.4c-1.3,0-2.4-1.1-2.4-2.4c0-1.3,1.1-2.4,2.4-2.4
				C158,215.1,159.1,216.2,159.1,217.5z"/>
		</g>
	</g>
	<g>
		<g>
			<g>
				<path class="st1" d="M111.1,21.7c-4.5-4.8-9.7-3.6-11.1-3.2c-1.4,0.4-6.4,2.1-7.7,8.6c0,0-0.5,4.4,2.1,7.1
					c2.6,2.8,7.3,6.3,8.2,8.2s1.4,3.7,1.4,3.7l0.6-0.2l6.4-1.8l0.6-0.2c0,0-0.5-1.8-0.8-3.9c-0.4-2.1,1.8-7.6,2.5-11.3
					C113.9,25.1,111.1,21.7,111.1,21.7z"/>
				<g>
					<path class="st16" d="M109.5,27.5c-0.2-0.1-0.4-0.3-0.6-0.2c-0.2,0-0.4,0.1-0.6,0.3c-0.3,0.3-0.5,0.7-0.7,1.2
						c-0.2,0.5-0.3,1.1-0.3,1.7c0,0.6,0,1.2,0,1.8c0,0.4,0.1,0.8,0.1,1.2c-0.2,0.1-0.4,0.1-0.6,0.1c-0.6-0.1-1.2-0.5-1.6-1
						c0-0.3-0.1-0.6-0.2-0.9c-0.1-0.3-0.2-0.6-0.2-0.9c-0.1-0.4-0.3-0.8-0.4-1.1c-0.1-0.3-0.3-0.6-0.7-0.7c-0.1,0-0.1,0-0.2,0
						c-0.1,0-0.1,0.1-0.1,0.1c-0.1,0.4,0,0.9,0.2,1.3c0.2,0.5,0.4,0.9,0.7,1.3c0.2,0.4,0.5,0.8,0.8,1.2c0.1,0.7,0.1,1.6-0.7,1.8
						c-0.4,0.1-0.8,0-1.1-0.3c-0.1,0-0.1-0.1-0.2-0.1c-0.1-0.3-0.2-0.6-0.3-0.9c-0.2-0.5-0.4-1-0.7-1.4c-0.2-0.4-0.4-0.8-0.8-1.1
						c-0.2-0.1-0.4-0.1-0.5-0.1c-0.1,0-0.1,0.1-0.1,0.2c0,0.5,0.2,1,0.5,1.4c0.3,0.4,0.6,0.8,1,1.2c0.3,0.3,0.5,0.6,0.8,0.9
						c0.3,0.8,0.4,1.6,0.4,2.4c0,0.5-0.1,1-0.5,1.3c0,0,0,0,0,0c-0.3-0.5-0.6-1-0.9-1.5c-0.5-0.7-0.9-1.4-1.4-2
						c-0.2-0.3-0.4-0.6-0.6-0.8c-0.2-0.2-0.3-0.5-0.5-0.7c-0.3-0.4-0.8-0.9-1.3-1c-0.3-0.1-0.5,0-0.6,0.3c-0.1,0.2,0,0.5,0.1,0.8
						c0.1,0.4,0.3,0.7,0.4,1c0.3,0.6,0.7,1.3,1.1,1.8c0.2,0.2,0.4,0.5,0.5,0.7c0.4,0.4,0.8,0.9,1.2,1.2c0.4,0.3,1,0.6,1.5,0.5
						c0.1,0,0.2,0,0.3-0.1c0.3,0.6,0.6,1.1,0.9,1.7c0.7,1.4,1.4,2.8,2,4.2c0.1,0.3,0.2,0.7,0.4,1c0,0.1,0.1,0,0.1-0.1
						c-0.4-1.5-1.1-3-1.8-4.5c-0.4-0.7-0.7-1.4-1.1-2.1c-0.1-0.1-0.2-0.3-0.2-0.4c0,0,0.1-0.1,0.1-0.1c0.2-0.2,0.3-0.4,0.4-0.7
						c0.2-0.6,0.1-1.3,0-2c-0.1-0.3-0.1-0.6-0.2-0.9c0.2,0.2,0.5,0.3,0.8,0.2c0.4,0,0.8-0.3,1-0.7c0.2-0.3,0.2-0.7,0.2-1.1
						c0.2,0.2,0.5,0.4,0.8,0.6c0.4,0.2,0.9,0.3,1.4,0.1c0.1,0.8,0.2,1.6,0.3,2.4c0.2,1.4,0.4,2.8,0.6,4.2c0.1,0.7,0.2,1.4,0.4,2.1
						c0.1,0.6,0.3,1.2,0.4,1.8c0.1,0.2,0.1,0.5,0.1,0.7c0,0.2,0.2,0.1,0.2,0c0-0.2,0-0.5-0.1-0.7c-0.1-0.2-0.1-0.5-0.2-0.7
						c-0.1-0.7-0.3-1.3-0.4-2c-0.1-0.7-0.2-1.3-0.3-2c-0.1-0.7-0.2-1.3-0.3-2c-0.2-1.3-0.4-2.6-0.5-3.9c0.4-0.2,0.7-0.5,1-0.9
						c0.3-0.4,0.6-0.9,0.7-1.4c0.2-0.4,0.3-0.8,0.4-1.2c0.1-0.5,0.2-0.9,0.1-1.4C109.9,28.2,109.8,27.8,109.5,27.5z M101.3,37.8
						c-0.5-0.3-0.9-0.7-1.3-1.1c-0.2-0.2-0.3-0.4-0.5-0.6c-0.1-0.1-0.2-0.2-0.3-0.3c-0.4-0.5-0.7-1-0.9-1.5c-0.2-0.3-0.4-0.7-0.5-1
						c-0.1-0.3-0.2-0.5-0.2-0.8c0,0,0,0,0,0c0,0,0,0,0,0c0,0,0,0,0,0c0,0,0-0.1,0-0.1c0,0,0,0,0,0c0,0,0,0,0,0c0,0,0,0,0,0
						c0,0,0,0,0,0c0,0,0,0,0,0c0,0,0,0,0,0c0,0,0,0,0,0c0,0,0,0,0,0c0,0,0,0,0,0c0,0,0,0,0,0c0,0,0,0,0,0c0,0,0,0,0,0c0,0,0,0,0,0
						c0,0,0,0,0,0c0,0,0,0,0,0c0,0,0,0,0,0c0,0,0,0,0,0c0,0,0,0,0.1,0c0,0,0,0,0,0c0,0,0,0,0,0c0,0,0,0,0,0c0,0,0,0,0,0
						c0.1,0,0.2,0.1,0.3,0.1c0.2,0.1,0.5,0.3,0.7,0.5c0.4,0.4,0.7,0.9,1.1,1.3c0.5,0.6,0.9,1.2,1.4,1.9c0.5,0.7,0.9,1.4,1.3,2.1
						C102.1,38.1,101.7,38,101.3,37.8z M102.4,33.3c-0.3-0.3-0.6-0.7-0.9-1.1c-0.3-0.4-0.6-0.8-0.7-1.3c0-0.1,0-0.1,0-0.2
						c0.3,0,0.6,0.4,0.8,0.6c0.2,0.3,0.4,0.7,0.6,1.1c0.2,0.4,0.4,0.8,0.5,1.2C102.6,33.5,102.5,33.4,102.4,33.3z M104.1,30.7
						c-0.2-0.4-0.4-0.8-0.5-1.3c0-0.1,0-0.3,0-0.4c0.2,0.1,0.4,0.3,0.5,0.5c0.2,0.3,0.3,0.7,0.5,1c0.1,0.3,0.2,0.6,0.3,0.9
						c0.1,0.2,0.1,0.4,0.2,0.6c-0.1-0.1-0.1-0.1-0.2-0.2C104.5,31.4,104.3,31.1,104.1,30.7z M109.7,29.3c-0.1,0.9-0.3,1.7-0.7,2.5
						c-0.3,0.6-0.7,1.2-1.3,1.5c-0.1-1.1-0.2-2.2-0.1-3.3c0.1-0.5,0.1-1,0.3-1.5c0.1-0.2,0.2-0.4,0.3-0.6c0.1-0.2,0.2-0.3,0.4-0.4
						c0.4-0.2,0.7,0.2,0.9,0.5C109.7,28.4,109.7,28.9,109.7,29.3z"/>
					<path class="st16" d="M97.6,32.2C97.6,32.2,97.6,32.2,97.6,32.2C97.6,32.2,97.6,32.2,97.6,32.2C97.6,32.2,97.6,32.2,97.6,32.2z
						"/>
				</g>
				<g>
					<path class="st17" d="M111.4,48.1l-1.8,0.5l-1.3,0.4l-1.8,0.5c0,0,0.5,2.5,3,1.9l0.4-0.1C112.2,50.5,111.4,48.1,111.4,48.1z"/>
					<g>
						<path class="st18" d="M111.2,42.9l-7.6,2.2c-0.3,0.1-0.7-0.1-0.8-0.4l0,0c-0.1-0.3,0.1-0.7,0.4-0.8l7.6-2.2
							c0.3-0.1,0.7,0.1,0.8,0.4l0,0C111.7,42.4,111.6,42.8,111.2,42.9z"/>
						<path class="st18" d="M111.9,45.2l-7.6,2.2c-0.3,0.1-0.7-0.1-0.8-0.4l0,0c-0.1-0.3,0.1-0.7,0.4-0.8l7.6-2.2
							c0.3-0.1,0.7,0.1,0.8,0.4l0,0C112.4,44.8,112.2,45.1,111.9,45.2z"/>
						<path class="st18" d="M111.6,44l-7.6,2.2c-0.3,0.1-0.7-0.1-0.8-0.4l0,0c-0.1-0.3,0.1-0.7,0.4-0.8l7.6-2.2
							c0.3-0.1,0.7,0.1,0.8,0.4l0,0C112.1,43.6,111.9,44,111.6,44z"/>
						<path class="st18" d="M112.2,46.4l-7.6,2.2c-0.3,0.1-0.7-0.1-0.8-0.4l0,0c-0.1-0.3,0.1-0.7,0.4-0.8l7.6-2.2
							c0.3-0.1,0.7,0.1,0.8,0.4l0,0C112.8,46,112.6,46.3,112.2,46.4z"/>
						<path class="st18" d="M112.6,47.6l-7.6,2.2c-0.3,0.1-0.7-0.1-0.8-0.4l0,0c-0.1-0.3,0.1-0.7,0.4-0.8l7.6-2.2
							c0.3-0.1,0.7,0.1,0.8,0.4l0,0C113.1,47.2,112.9,47.5,112.6,47.6z"/>
						<path class="st18" d="M112.9,48.8l-7.6,2.2c-0.3,0.1-0.7-0.1-0.8-0.4l0,0c-0.1-0.3,0.1-0.7,0.4-0.8l7.6-2.2
							c0.3-0.1,0.7,0.1,0.8,0.4l0,0C113.5,48.3,113.3,48.7,112.9,48.8z"/>
					</g>
				</g>
			</g>
		</g>
		<g>
			<g>
				<path class="st19" d="M99.2,15L99.2,15c-0.6,0.2-1.3-0.2-1.5-0.8l-1-3.4c-0.2-0.6,0.2-1.3,0.8-1.5l0,0c0.6-0.2,1.3,0.2,1.5,0.8
					l1,3.4C100.2,14.2,99.8,14.8,99.2,15z"/>
			</g>
			<g>
				<path class="st19" d="M109.8,16.4L109.8,16.4c0.6,0.3,1.3,0.1,1.6-0.5l1.7-3.2c0.3-0.6,0.1-1.3-0.5-1.6l0,0
					c-0.6-0.3-1.3-0.1-1.6,0.5l-1.7,3.2C109,15.3,109.2,16.1,109.8,16.4z"/>
			</g>
			<g>
				<path class="st19" d="M115.5,23.7L115.5,23.7c0.2,0.6,0.9,0.9,1.5,0.6l3.3-1.3c0.6-0.2,0.9-0.9,0.6-1.5l0,0
					c-0.2-0.6-0.9-0.9-1.5-0.6l-3.3,1.3C115.6,22.4,115.3,23.1,115.5,23.7z"/>
			</g>
			<g>
				<path class="st19" d="M115.3,34.1L115.3,34.1c0.3-0.6,1-0.9,1.5-0.6l3.3,1.4c0.6,0.3,0.9,1,0.6,1.5l0,0c-0.3,0.6-1,0.9-1.5,0.6
					l-3.3-1.4C115.4,35.4,115.1,34.7,115.3,34.1z"/>
			</g>
			<g>
				<path class="st19" d="M91.1,21.8L91.1,21.8c-0.3,0.6-1,0.8-1.6,0.4l-3.1-1.8c-0.6-0.3-0.8-1-0.4-1.6l0,0c0.3-0.6,1-0.8,1.6-0.4
					l3.1,1.8C91.2,20.5,91.4,21.2,91.1,21.8z"/>
			</g>
			<g>
				<path class="st19" d="M90.2,31.1L90.2,31.1c0.1,0.6-0.3,1.3-1,1.4l-3.5,0.6c-0.6,0.1-1.3-0.3-1.4-1l0,0c-0.1-0.6,0.3-1.3,1-1.4
					l3.5-0.6C89.5,30,90.1,30.4,90.2,31.1z"/>
			</g>
			<g>
				<path class="st19" d="M95.9,39.8L95.9,39.8c-0.5-0.4-1.3-0.2-1.6,0.3l-2,2.9c-0.4,0.5-0.2,1.3,0.3,1.6l0,0
					c0.5,0.4,1.3,0.2,1.6-0.3l2-2.9C96.6,40.9,96.4,40.1,95.9,39.8z"/>
			</g>
		</g>
	</g>
	<g>
		<g>
			<g>
				<path class="st20" d="M229,348.4c-1.1,0.6-7.8,3.8-10.3,4.9c-2.2,1-4.5,1.8-6.9,2.2c-2.4,0.5-4.9,0.6-7.3,0.3
					c0-0.1-0.1-0.1-0.1-0.2c-0.2-0.1-0.3-0.2-0.5-0.3c-1.1-0.8-1.6-2.4-0.9-3.7c0.3-0.7,0.9-1.2,1.5-1.7c0.7-0.6,1.4-1.1,2.2-1.6
					c1.7-1.1,3.4-2.1,5.1-3.2c1.5-1,3.1-1.9,4.5-3c0.7-0.5,1.3-1.2,1.9-1.9c0.2-0.3,0.5-0.7,0.5-1.1c0-0.4-0.2-0.7-0.1-1.1
					c0.1-1.3,2.3-1,3.2-1c0.7,0,1.4,0,2,0.3c0.3,0.1,0.5,0.3,0.7,0.6c0.2,0.3,0.3,0.7,0.7,0.5c0.7-0.3,1.1-1,1.6-1.4
					c0.5-0.4,1-0.7,1.6-0.8c0.5-0.1,1.1-0.1,1.5,0.2c0,0,0,0,0,0c1,3.2,1.8,6.6,1.3,9.9C230.8,347,229.6,348.1,229,348.4z"/>
			</g>
			<g>
				<path class="st20" d="M194.1,348.9c-1.2,0.5-2.4,0.8-3.6,1.2c-2.5,1-4.9,2.3-7.5,3c-2.3,0.7-4.8,1.1-7.2,1.2
					c-2.4,0.1-4.9-0.1-7.2-0.7c0-0.1-0.1-0.1-0.1-0.2c-0.1-0.1-0.3-0.2-0.4-0.4c-1-1-1.2-2.6-0.4-3.8c0.4-0.6,1.1-1,1.7-1.4
					c0.8-0.5,1.6-0.9,2.4-1.3c1.8-0.9,3.7-1.6,5.5-2.4c1.6-0.8,3.4-1.4,4.9-2.4c0.8-0.4,1.5-1,2.1-1.6c0.3-0.3,0.6-0.6,0.7-1
					c0.1-0.4,0-0.8,0-1.1c0.3-1.2,2.4-0.7,3.3-0.5c0.7,0.1,1.4,0.2,2,0.6c0.3,0.2,0.4,0.4,0.6,0.7c0.1,0.3,0.1,0.7,0.6,0.6
					c0.7-0.2,1.2-0.8,1.8-1.2c0.5-0.3,1.1-0.5,1.7-0.6c0.5,0,1.1,0.1,1.5,0.5c0,0,0,0,0,0c0.5,3.3,0.8,6.8-0.2,10
					C195.8,348.7,194.7,348.7,194.1,348.9z"/>
			</g>
			<path class="st21" d="M179.2,124.1l-1.5-0.1c0,0-4,1.7-9.7,9.2c-5.7,7.5-12.5,24.9-13.1,27.1c0,0,0.8,10.9,3.3,13.3
				c2.5,2.5,19.7,20.8,19.7,20.8l3.5-8l-13.1-24.8l14.4-21.9L179.2,124.1z"/>
			<path class="st22" d="M187.7,189.7c1.9,0,3.9-0.1,5.8-0.2c7.8-0.3,15.6-1.6,23-4c1.2-0.4,2.4-0.8,3.5-1.2
				c0.8-1.5,1.3-2.6,1.4-2.8c0.2-1,0.4-2.1,0.5-3.1c-1-2,5.7-38.2,4.4-43.1c-1-3.8,0.7-12.1-0.2-15.9c-1.3-2.1-10-3.2-14.7-4.6
				c-2.6-0.8-4.1-18.5-5.7-18.4c-2.3,0.2-7.1,4.6-9.2,5.2c-0.9,0.3-2.9,4.4-3.7,4.9c-0.1,0.9,0.7,9,0.1,9.8c-0.6,0.8-1.3,1.4-2,2
				c-0.9,0.7-12.2,4.7-13.1,5.6c-0.3,0.4-1,24.7,0,31.9c1.9,13.7,2.5,20.6,6.6,30.5C184.7,186.4,187.4,189.7,187.7,189.7z"/>
			<path class="st21" d="M186.6,127.2c1,2.1,2.6,3.6,4.6,4.7c3.8,2,8.5,2.2,12.7,1.6c4.2-0.5,8.3-2.3,11.5-5.1
				c3.2-2.7,5.5-6.3,7-10.2c0.1-0.3,0.2-0.5,0.3-0.8c-3.3-1-8.1-1.8-11.2-2.7c-2.6-0.8-4.1-18.5-5.7-18.4c-2.3,0.2-7.1,4.6-9.2,5.2
				c-0.9,0.3-2.9,4.4-3.7,4.9c-0.1,0.9,0.7,9,0.1,9.8c-0.6,0.8-1.3,1.4-2,2c-0.4,0.3-3,1.3-5.7,2.4
				C185.3,122.9,185.6,125.2,186.6,127.2z"/>
			<path class="st23" d="M198.5,339.1c1.8-32.3,5.5-119.6,5.5-119.6s9.2-18.9,7.7-23.9c-1.5-4.9-26-6.8-26-6.8s-3.9,10.3-6.2,19.6
				c-1.7,7.1,3.4,118.7,4.3,130.6C185,338.9,190.6,342.8,198.5,339.1z"/>
			<path class="st22" d="M203.8,121.5c-0.8,0.4-1.5,1-2.2,1.6c-0.5,0.4-1,0.8-1.6,1.1c0.8,0,1.6-0.2,2.3-0.7
				c0.8-0.5,1.5-1.1,2.2-1.6c0.7-0.5,1.5-0.9,2.4-1.1c-0.5,0.1-1,0.2-1.5,0.3C204.8,121.1,204.3,121.2,203.8,121.5z"/>
			<path class="st22" d="M191.3,122c0.9,0.3,1.6,0.9,2.3,1.4c0.5,0.4,1.1,0.7,1.7,0.9c-0.8,0.1-1.6-0.1-2.4-0.5
				c-0.8-0.4-1.6-1-2.3-1.4c-0.8-0.4-1.6-0.7-2.4-0.9c0.5,0.1,1,0.1,1.6,0.2C190.2,121.8,190.8,121.8,191.3,122z"/>
			<path class="st24" d="M200.5,221.1l17,118.6c1.7-0.8,7.4,2.7,13.5-2.2c1.4-9.5-2.7-122.7-3.4-132c-0.6-8.4-1.4-19.9-6.1-24.2
				c-2.4,1.4-36.6,0.7-39.4,2.9c0.1,3.4-0.4,14.6,3.6,19.7C189,208.2,200.5,221.1,200.5,221.1z"/>
			<path class="st23" d="M215.5,188.5c0.4,3.9,0.8,7.8,1.4,11.7c0.7,3.8,1.5,7.5,3,11.1c1.3,3.2,3.1,6.3,5.6,8.8
				c0.5,0.5,1,0.9,1.6,1.3c-0.3-8.4-0.6-14.3-0.7-16.2c-0.6-8.4-1.4-19.9-6.1-24.2c-0.5,0.3-2.5,0.5-5.4,0.7
				C215.2,184,215.3,186.2,215.5,188.5z"/>
			<path class="st3" d="M190.1,118.2c0,0-3.2,6,7.2,6.9c10.4,1,15.1-11,15.1-11s7.7,0.9,12.3,2.5c4.6,1.6,8,5.8,8,5.8l-0.6,88.9
				c0,0-12.6,3.7-31.2,3.1c-18.8-0.5-22.9-5.7-22.9-5.7s-4.6-54.7-3.6-67.1c1-12.4,2.9-18.7,2.9-18.7L190.1,118.2z"/>
			<path class="st25" d="M190.1,118.2l-0.5,0.2c-0.2,1.1-0.3,2.1,0,3.2c0.3,1.3,1.1,2.5,2.2,3.4c2.3,1.8,5.4,2.1,8.1,1.8
				c2.9-0.4,5.7-1.4,7.9-3.3c2.7-2.3,4.4-5.6,5.4-9c-0.5-0.1-0.8-0.2-0.8-0.2s-4.7,11.9-15.1,11
				C186.9,124.1,190.1,118.2,190.1,118.2z"/>
			<g>
				<path class="st21" d="M184.4,189.2c-0.4-0.7-1.1-1.3-1.7-1.8c-0.4-0.3-0.8-0.6-1.2-0.9c-0.6-0.6-1-1.3-1.4-2
					c-0.5-0.8-0.9-1.7-1.3-2.5c-0.7-1.4-1.5-2.7-2.1-4.2c-0.4-0.1-0.8-0.2-1.2-0.1c-0.4,0.2-0.7,0.6-0.9,1c-0.3,0.9-0.3,1.9-0.2,2.8
					c0.1,0.6,0.2,1.2,0.4,1.7c-0.3,0.1-0.5,0.4-0.6,0.7c-0.2,0.4-0.4,0.9-0.5,1.4c-0.3,1.1,0,2.2,0.6,3.2c0.2,0.3,0.3,0.5,0.5,0.7
					c-0.5,0.6-0.3,1.6-0.1,2.2c0.3,0.8,0.6,1.7,1.2,2.4c0.1,0.2,0.3,0.3,0.5,0.5c-0.1,0.3-0.1,0.6,0,1c0.1,0.3,0.2,0.6,0.4,0.9
					c0.4,0.6,0.9,1,1.5,1.3c1.1,0.5,2.7,0.6,3.4-0.5c0.2-0.3,0.3-0.6,0.2-1c0-0.2-0.1-0.3-0.2-0.5c0,0,0,0,0.1,0
					c0.5-0.2,0.8-0.7,0.8-1.2c0-0.5-0.3-1-0.7-1.4c0.6-0.2,1.2-0.6,1.7-1.1c0.1-0.1,0.1-0.1,0.1-0.2c0-0.1-0.1-0.2-0.1-0.3
					c0.4,0.1,0.8,0.1,1.2,0C185.4,191.1,184.7,189.7,184.4,189.2z"/>
				<path class="st22" d="M184.4,189.2c-0.4-0.7-1.1-1.3-1.7-1.8c-0.4-0.3-0.8-0.6-1.2-0.9c-0.6-0.6-1-1.3-1.4-2
					c-0.5-0.8-0.9-1.7-1.3-2.5c-0.5-1-1.1-2-1.6-3c0.1,0.4,0.2,0.9,0.3,1.3c0.4,1.3,0.9,2.6,1.5,3.9c0.5,0.9,1.2,1.7,1.9,2.4
					c0.8,0.7,1.6,1.3,2.3,2.1c0.3,0.4,0.6,0.8,0.6,1.3c0,0.3,0,0.6-0.3,0.7c-0.3,0.1-0.8-0.1-1.1-0.3c-0.4-0.2-0.8-0.5-1.2-0.8
					c-0.7-0.6-1.4-1.3-2.1-2c-0.7-0.7-1.4-1.3-2.1-2c-0.7-0.7-1.4-1.4-2.1-2.2c0,0,0.1,0.1,0.1,0.1c0.3,0.5,0.6,1,1,1.4
					c0.7,0.8,1.5,1.5,2.2,2.3c0.6,0.6,1.2,1.3,1.9,1.9c0.4,0.4,0.9,0.7,1.2,1.1c0.1,0.1,0.3,0.3,0.4,0.5c0.1,0.1,0.1,0.1,0.2,0.2
					c0.2,0.3,0.4,0.7,0,1c-0.3,0.2-0.7,0.2-1,0.2c-1.2-0.1-2.3-0.7-3.3-1.2c-0.9-0.5-1.9-1-2.8-1.7c-0.1-0.1-0.2-0.2-0.3-0.3
					c0.9,1,2,1.9,3.2,2.4c0.6,0.3,1.2,0.5,1.8,0.8c0.5,0.3,1.1,0.6,1.5,1.1c0.2,0.3,0.5,0.7,0.2,1.1c-0.2,0.3-0.7,0.3-1,0.4
					c-1,0.1-2.1-0.2-3.1-0.5c-0.7-0.2-1.3-0.5-1.9-1c0.1,0.2,0.2,0.3,0.4,0.5c0.1,0.1,0.2,0.2,0.3,0.3c0.4,0.3,0.8,0.5,1.3,0.6
					c0.5,0.2,1,0.3,1.5,0.4c0.4,0.1,0.9,0.1,1.3,0.3c0.4,0.1,0.8,0.4,0.9,0.8c0.1,0.4-0.2,0.8-0.5,1c-0.8,0.4-2,0.2-2.8,0
					c0,0,0,0-0.1,0c0.1,0.1,0.3,0.2,0.5,0.3c1.1,0.5,2.7,0.6,3.4-0.5c0.2-0.3,0.3-0.6,0.2-1c0-0.2-0.1-0.3-0.2-0.5c0,0,0,0,0.1,0
					c0.5-0.2,0.8-0.7,0.8-1.2c0-0.5-0.3-1-0.7-1.4c0.6-0.2,1.2-0.6,1.7-1.1c0.1-0.1,0.1-0.1,0.1-0.2c0-0.1-0.1-0.2-0.1-0.3
					c0.4,0.1,0.8,0.1,1.2,0C185.4,191.1,184.7,189.7,184.4,189.2z"/>
				<path class="st26" d="M176.6,194.8c0.1-0.2,0.2-0.3,0.3-0.4c-0.3-0.2-0.6-0.5-0.9-0.8c-0.8-0.9-1.4-2-1.3-3.2
					c0-0.5,0.1-0.9,0.5-1.3c0,0,0,0,0,0c-0.2-0.3-0.4-0.6-0.6-1c-0.5-1.1-0.9-2.4-0.3-3.5c0.3-0.5,0.7-0.9,1.2-1.1
					c-0.2-0.3-0.3-0.6-0.5-1c-0.5-1.3-0.8-3.8,0.3-4.9c-0.4,0.2-0.6,0.5-0.8,0.9c-0.3,0.9-0.3,1.9-0.2,2.8c0.1,0.6,0.2,1.2,0.4,1.7
					c-0.3,0.1-0.5,0.4-0.6,0.7c-0.2,0.4-0.4,0.9-0.5,1.4c-0.3,1.1,0,2.2,0.6,3.2c0.2,0.3,0.3,0.5,0.5,0.7c-0.5,0.6-0.3,1.6-0.1,2.2
					c0.3,0.8,0.6,1.7,1.2,2.4c0.1,0.2,0.3,0.3,0.5,0.5c-0.1,0.3-0.1,0.6,0,1c0.1,0.3,0.2,0.6,0.4,0.9c0.3,0.5,0.7,0.9,1.2,1.2
					c-0.1-0.1-0.2-0.1-0.3-0.2C177,196.5,176.3,195.7,176.6,194.8z"/>
			</g>
			<path class="st25" d="M177.3,122.9c0,0-2.5,0.9-6.4,5c-3.9,4.1-17.5,33.2-17.5,33.2s3.7,9.7,18.8,6.2l2.3-8.1
				C174.6,159.2,174.6,131.3,177.3,122.9z"/>
			<path class="st25" d="M170.9,165c-3.9,0.4-7.9-0.4-11.4-2.2c-1.8-0.9-3.8-2.2-5-3.9c-0.6,1.3-1,2.1-1,2.1s3.7,9.7,18.8,6.2
				l0.7-2.5C172.3,164.9,171.6,165,170.9,165z"/>
			<g>
				<path class="st22" d="M251,170.7c-0.3-1.9-0.9-3.7-1.5-5.5c-1.5-4.6-2.9-9.2-4.5-13.7c-2.4-6.9-4.6-15.3-9.5-21.1
					c-1.3-1.5-2.9-2.9-4.7-3.8c-0.2-0.1-0.4-0.1-0.7-0.2c-0.9-0.2-1.7-0.1-2.4,0.4c-0.4,0.3-0.8,0.6-1.2,1c-0.4,0.4-0.8,0.9-1.1,1.5
					c-0.6,1.1-0.9,2.3-1.1,3.5c-0.3,2.3-0.3,4.7,0.2,7c0.4,2,1.1,4,1.8,5.9c2,3.3,4.2,6.7,5.7,10.3c1,2.5,2.1,4.9,3.1,7.4
					c0.9,2.3,1.8,4.7,2.5,7.1c0.6,2,1.2,4.1,2.4,5.8c0.6,0.8,1.4,1.6,2.4,2c1,0.4,2.1,0.5,3.2,0.3c1.9-0.3,3.7-1.2,4.7-2.9
					C251.2,174.2,251.2,172.4,251,170.7z"/>
				<path class="st25" d="M230.5,120.1c-2.2-1.8-5-3.1-7.3-3.9c-0.3,1.2-0.7,2.4-1,3.6c-0.5,1.7-0.9,3.4-1.1,5.2
					c-0.3,3.2,0,6.5,0.3,9.6c0.3,3,0.8,6,1.5,8.9c0.2,1.1,0.5,2.1,0.8,3.1c2.6,5.3,7.8,16.9,7.8,16.9c15.4,1.8,19.4-10.4,19.4-10.4
					S239.9,127.7,230.5,120.1z"/>
			</g>
			<path class="st25" d="M249.3,151.9c-2.2,3.4-5.3,6.1-9.1,7.7c-3.2,1.3-6.8,1.5-10.2,0.6c0.9,2,1.5,3.4,1.5,3.4
				c15.4,1.8,19.4-10.4,19.4-10.4s-0.4-0.8-1.2-2.1C249.6,151.4,249.4,151.7,249.3,151.9z"/>
			<g>
				<path class="st27" d="M170,97.8c-0.1,0-0.2-0.1-0.2-0.1c0-0.1,0-0.2,0.1-0.3l13.8-4.5c0,0,0.8-0.3,1.7,0.1c1,0.4,1.8,1.4,2.4,3
					c0,0.1,0,0.2-0.1,0.3c-0.1,0-0.2,0-0.3-0.1c-0.6-1.5-1.3-2.4-2.1-2.8c-0.8-0.3-1.4-0.1-1.4-0.1L170,97.8
					C170.1,97.7,170.1,97.8,170,97.8z"/>
				<g>
					<g>
						<path class="st22" d="M205.6,67.9c-3.3-3.9-8-6.8-13.1-7.6c-4.8-0.8-9.8,2.6-13.8,5.5c-3.7,2.7-6,4.6-6.7,9
							c-0.1,0.5-0.1,1.1-0.2,1.6c-0.1,0.6-0.2,1.1-0.3,1.7c-0.3,2.9,0.9,5.7,1.9,8.4c0.6,1.5,1.1,2.9,1.4,4.5
							c0.3,1.6,0.3,3.1,0.4,4.7c0.1,2.9,0.3,5.7,1.8,8.2c2.4,3.9,6.6,7.1,11.2,7.9c4.7,0.8,9.4-1,13.3-3.5c4.1-2.7,7.6-6.5,9.6-11
							c2.1-4.8,1.9-10,0.9-15C210.9,77.1,209,72,205.6,67.9z"/>
						<g>
							<path class="st28" d="M179.5,93.7c-0.3-0.7-0.8-1.3-1.4-1c-0.1,0.1-0.2,0.1-0.2,0.2c-0.2,0.4-0.3,0.8-0.3,1.3
								c0,0.7,0.2,1.4,0.5,2c0.2,0.3,0.4,0.5,0.7,0.7c0.3,0.1,0.7,0.1,0.9-0.1c0.5-0.5,0.4-1.2,0.3-1.8
								C179.8,94.6,179.7,94.1,179.5,93.7z"/>
							<path class="st2" d="M178.3,93.6c-0.1-0.1-0.2-0.2-0.3-0.3c0,0-0.1,0-0.1,0c0,0,0,0,0,0.1c0,0,0,0,0,0c0,0,0,0,0,0
								c0,0,0,0,0,0c0,0.1,0,0.1,0,0.2c0,0.2,0,0.4,0.1,0.5c0,0.1,0.1,0.1,0.2,0.2c0.1,0,0.2,0,0.2,0c0.1-0.1,0.1-0.3,0.1-0.5
								C178.4,93.8,178.3,93.7,178.3,93.6z"/>
						</g>
						<g>
							<path class="st28" d="M194.1,90.1c-0.3-0.7-0.8-1.3-1.4-1c-0.1,0.1-0.2,0.1-0.2,0.2c-0.2,0.4-0.3,0.8-0.3,1.3
								c0,0.7,0.2,1.4,0.5,2c0.2,0.3,0.4,0.5,0.7,0.7c0.3,0.1,0.7,0.1,0.9-0.1c0.5-0.5,0.4-1.2,0.3-1.8
								C194.5,91,194.4,90.6,194.1,90.1z"/>
							<path class="st2" d="M193,90c-0.1-0.1-0.2-0.2-0.3-0.3c0,0-0.1,0-0.1,0c0,0,0,0,0,0.1c0,0,0,0,0,0c0,0,0,0,0,0c0,0,0,0,0,0
								c0,0.1,0,0.1,0,0.2c0,0.2,0,0.4,0.1,0.5c0,0.1,0.1,0.1,0.2,0.2c0.1,0,0.2,0,0.2,0c0.1-0.1,0.1-0.3,0.1-0.5
								C193,90.2,193,90.1,193,90z"/>
						</g>
						<path class="st29" d="M174.4,86.4c0.6-0.1,1.3,0,2,0.2c0.8,0.2,1.5,0.5,2.3,0.9c0.6,0.3,1.2,0.6,1.8,1
							c0.1-0.1,0.2-0.2,0.1-0.3c-0.3-0.4-0.6-0.7-1-1.1c-0.4-0.4-0.8-0.7-1.2-1c-0.8-0.5-1.6-1-2.5-1.3c-0.7-0.2-1.7-0.4-2.2,0.3
							c-0.4,0.5-0.3,1.1-0.3,1.7c0,0.1,0,0.1,0,0.1c0,0,0,0.1,0,0.1C173.6,86.7,174,86.4,174.4,86.4z"/>
						<path class="st29" d="M190.1,84.4c1.1-0.4,2.2-0.8,3.3-1.2c1.8-0.6,3.6-1.1,5.5-1.6c-0.4-0.4-1-0.6-1.6-0.8
							c-1.7-0.6-3.4-0.1-4.9,0.7c-0.9,0.5-1.8,1.1-2.6,1.7c-0.4,0.3-0.9,0.7-1.2,1.1c-0.1,0.1-0.2,0.3-0.3,0.4
							c0,0.1-0.1,0.1-0.1,0.2c0,0,0,0,0,0C188.7,84.9,189.4,84.6,190.1,84.4z"/>
						<path class="st22" d="M185.6,101.1c-0.8-0.3-1.8-0.5-2.5-1.1c-0.1-0.1-0.3-0.3-0.4-0.4c-0.1-0.2,0-0.5,0.1-0.7
							c0.1-0.5,0.3-0.9,0.4-1.4c0.2-0.8,0.4-1.7,0.5-2.5c0-0.2-0.1-0.4-0.1-0.6c-0.2,1.2-0.4,2.3-0.7,3.5c-0.2,0.8-0.7,1.7-0.3,2.5
							c0.4,0.7,1.2,1,2,1.1c0.2,0,0.4,0.1,0.7,0.1c0.3,0,0.6,0.1,1,0.1C186,101.5,185.8,101.3,185.6,101.1z"/>
						<path class="st2" d="M186,107.6c0,0,5.7-1.9,9.9-4.9c0,0,0.7,2.4-3.3,4.2C188.7,108.7,186,107.6,186,107.6z"/>
						<path class="st30" d="M213.9,65.7c-1.7-2.2-4-3.8-6.5-4.9c-2.5-1.1-5.3-1.6-8.1-1.5c-0.5-0.6-1.1-1-1.8-1.4
							c-2.5-0.9-5.3-0.5-7.8,0.4c-2.8,1-5.5,2.4-8.1,3.8c-3.2,1.7-6.4,3.6-9.7,5c-1.8,0.8-4.1,0.7-5.7,2c-2.6,1.9-3.5,5.7-2.1,8.5
							c2.9,6.3,12,4.4,16.9,2.1c2.3-1.1,4.6-2.3,6.9-3.5c1.5-0.8,3.2-1.8,4.4-3.2c3.4,1.7,6.5,4,9.3,6.6c2.8,2.7,5.4,5.6,7.3,9.1
							c0.6,1,1,2.1,1.4,3.2c0.3,1.1,0.6,2.2,1,3.2c0.1,0.3,0.4,0.1,0.6,0c0.5-0.5,0.6-1.2,0.7-1.8c0.1-0.8,0.3-1.6,0.6-2.4
							c0.5-1.8,1.2-3.5,1.9-5.2c0.7-1.7,1.3-3.3,1.7-5.1c0.4-1.8,0.5-3.8,0.5-5.6C216.9,71.7,216,68.4,213.9,65.7z"/>
						<path class="st22" d="M215,85.4c-0.5-1.1-1.6-2.2-2.9-1.9c-1.6,0.3-2.3,2.2-2.6,3.6c-0.1,0.4-0.2,0.8-0.2,1.3
							c-0.2,0.6-0.3,1.2-0.4,1.8c-0.1,1.3,0,2.7,0.2,4.1c0.1,1,0.3,2.5,1.5,2.8c1.1,0.3,2.1-0.6,2.7-1.3c1.6-1.8,2.1-4.1,2.2-6.4
							C215.6,88,215.5,86.6,215,85.4z"/>
						<path class="st22" d="M214.2,86.6c-0.4-0.5-1-0.5-1.4-0.1c-0.6,0.5-1,1.3-1.2,2c-0.2,0.8-0.4,1.6-0.4,2.5
							c-0.1,1.2,0,2.5,0.4,3.7c0.1,0.2,0.3,0,0.3-0.2c-0.1-0.7-0.3-1.5-0.3-2.2c0.1,0,0.2-0.1,0.3-0.1c0.1-0.1,0.3-0.2,0.4-0.2
							c0.2-0.2,0.5-0.4,0.6-0.7c0.4-0.5,0.6-1,0.9-1.5c0.1-0.1-0.1-0.2-0.2-0.1c-0.3,0.5-0.6,0.9-0.9,1.4c-0.2,0.2-0.3,0.4-0.6,0.6
							c-0.1,0.1-0.2,0.2-0.3,0.2c-0.1,0-0.2,0.1-0.2,0.1c0-0.3,0-0.7,0-1c0.1-0.9,0.2-1.8,0.5-2.7c0.2-0.6,0.8-1.8,1.6-1.5
							c0.6,0.2,0.9,1.1,0.9,1.6c0,0.1,0.1,0,0.1,0C214.7,87.7,214.6,87.1,214.2,86.6z"/>
					</g>
				</g>
				<g>
					<path class="st27" d="M176.4,102.9c-2.7,0-5.3-1.8-6.4-4.6c-0.7-1.8-0.7-3.8,0.1-5.5c0.7-1.5,1.9-2.7,3.4-3.3
						c3.3-1.3,7.1,0.6,8.5,4.2l0,0c0.7,1.8,0.7,3.8-0.1,5.5c-0.7,1.5-1.9,2.7-3.4,3.3C177.9,102.8,177.2,102.9,176.4,102.9z
						 M175.7,89.5c-0.7,0-1.3,0.1-2,0.4c-1.4,0.5-2.5,1.6-3.1,3.1c-0.7,1.6-0.7,3.5-0.1,5.2c1.3,3.4,4.9,5.1,8,3.9
						c1.4-0.5,2.5-1.6,3.1-3.1c0.7-1.6,0.7-3.5,0.1-5.2l0,0C180.6,91.2,178.2,89.5,175.7,89.5z"/>
					<path class="st27" d="M193.1,98.7c-2.7,0-5.3-1.8-6.4-4.6c-0.7-1.8-0.7-3.8,0.1-5.5c0.7-1.5,1.9-2.7,3.4-3.3
						c3.3-1.3,7.1,0.6,8.5,4.2c0.7,1.8,0.7,3.8-0.1,5.5c-0.7,1.5-1.9,2.7-3.4,3.3C194.6,98.6,193.9,98.7,193.1,98.7z M192.4,85.3
						c-0.7,0-1.3,0.1-2,0.4c-1.4,0.5-2.5,1.6-3.1,3.1c-0.7,1.6-0.7,3.5-0.1,5.2c1.3,3.4,4.9,5.1,8,3.9c1.4-0.5,2.5-1.6,3.1-3.1
						c0.7-1.6,0.7-3.5,0.1-5.2C197.3,87,194.9,85.3,192.4,85.3z"/>
					<path class="st27" d="M197.8,88.3c-0.1,0-0.2-0.1-0.2-0.1c0-0.1,0-0.2,0.1-0.3l14-4.5c0,0,0.8-0.3,1.7,0.1c1,0.4,1.8,1.4,2.4,3
						c0,0.1,0,0.2-0.1,0.3c-0.1,0-0.2,0-0.3-0.1c-0.6-1.5-1.3-2.4-2.1-2.8c-0.8-0.3-1.4-0.1-1.4-0.1L197.8,88.3
						C197.8,88.3,197.8,88.3,197.8,88.3z"/>
					<path class="st27" d="M182.1,94.6C182,94.6,182,94.6,182.1,94.6c-0.2-0.1-0.2-0.2-0.2-0.3c0,0,1.3-2.4,4.9-1.2
						c0.1,0,0.2,0.2,0.1,0.3c0,0.1-0.2,0.2-0.3,0.1c-3.3-1.1-4.4,0.9-4.4,1C182.2,94.6,182.2,94.6,182.1,94.6z"/>
				</g>
			</g>
			<g>
				<path class="st2" d="M192.6,141.8h-8l1.5,18.8c0,0.3,2.9,0.6,6.5,0.6c3.6,0,6.5-0.3,6.5-0.6l1.5-18.8H192.6z"/>
				<path class="st31" d="M187.2,143.5c0.7,0,1.3,0.1,2,0.2c0.7,0,1.5,0.1,2.2,0.1c1.4,0,2.8,0,4.2-0.1c1.1-0.1,2.3-0.1,3.4-0.2
					c0.5-0.1,1-0.1,1.5-0.2l0.1-1.4h-15.9l0.1,1.5C185.6,143.4,186.4,143.5,187.2,143.5z"/>
				<ellipse class="st32" cx="192.6" cy="141.2" rx="8" ry="0.6"/>
				<g>
					<path class="st33" d="M200.4,138.9h-15.5l-0.9,3.5c0,0.3,3.9,0.6,8.7,0.6c4.8,0,8.7-0.3,8.7-0.6L200.4,138.9z"/>
					<path class="st34" d="M200.4,138.9c0,0.3-3.5,0.5-7.8,0.5c-4.3,0-7.8-0.2-7.8-0.5c0-0.3,3.5-0.5,7.8-0.5
						C196.9,138.4,200.4,138.6,200.4,138.9z"/>
				</g>
			</g>
			<path class="st22" d="M211,160.7c0.2-0.8,0.2-1.6,0.1-2.4c-0.1-0.8-0.4-1.5-0.8-2.2c-0.5-0.9-1.2-1.8-1.8-2.6
				c-0.6-0.9-1.2-1.8-1.8-2.7c-0.5-0.8-1.1-1.6-1.7-2.3c-0.2-0.3-0.5-0.5-0.8-0.6c-0.7-0.5-1.4-1-2.1-1.4c-0.9-0.6-1.9-1.2-2.8-1.7
				c-0.8-0.4-1.6-0.9-2.5-1.1c-0.9-0.3-1.7-0.3-2.7-0.3c-0.7,0-1.5-0.1-2.2,0c-0.3,0-0.6,0.1-0.8,0.4c-0.1,0.2-0.1,0.5,0,0.7
				c0.1,0.2,0.3,0.5,0.6,0.6c1.2,0.7,2.8,0.9,4.1,1.3c0.4,0.1,0.9,0.3,1.3,0.5c0.6,0.3,1.2,0.6,1.8,1c0.4,0.3,0.8,0.5,1.1,0.8
				c-0.1-0.1-0.3-0.1-0.4-0.2c-0.7-0.2-1.4-0.3-2.1-0.5c-0.7-0.1-1.4-0.3-2.1-0.3c0,0,0,0,0,0c-0.5-0.1-0.9-0.1-1.4-0.1
				c-0.9,0-1.8,0.2-2.6,0.4c-0.3,0.1-0.7,0.2-1,0.2c-0.5,0-1,0.1-1.5,0.2c-0.5,0.1-1.1,0.2-1.5,0.6c-0.5,0.4-0.2,0.9,0.2,1.2
				c0.7,0.5,1.5,0.5,2.3,0.3c1-0.2,2.1-0.3,3.1-0.3c1.1,0,2.1,0.2,3.1,0.6c0,0,0.1,0,0.1,0c-0.1,0-0.1,0-0.2,0
				c-0.5-0.1-1,0.1-1.5,0.2c-1.2,0.4-2.5,0.6-3.8,0.9c-0.6,0.1-1.3,0.3-1.9,0.4c-0.4,0.1-2.8,0.5-2,1.3c0.2,0.2,0.6,0.4,0.9,0.5
				c0.4,0.1,0.9,0.2,1.3,0.2c1,0,2-0.3,2.9-0.5c0.5-0.1,1-0.3,1.6-0.4c0.7-0.1,1.4,0.1,2,0.3c1,0.3,1.9,0.9,2.8,1.4
				c-0.4-0.1-0.7-0.2-1.1-0.3c-1.6-0.5-3-0.1-4.5,0.2c-0.8,0.1-1.5,0.1-2.3,0.3c-0.4,0.1-1,0.4-0.9,0.9c0,0.4,0.5,0.6,0.8,0.7
				c1.1,0.3,2.3,0.1,3.5,0c1.3,0,2.6,0.3,3.9,0.6c1.5,0.3,2.2,1.3,3.2,2.3c0.5,0.5,1,1,1.5,1.5c1.1,0.9,2.2,1.8,3.4,2.6
				c0.5,0.3,1,0.5,1.5,0.5c0.4,0,0.8-0.1,1.2-0.3C209.9,163.8,210.7,162.1,211,160.7z"/>
			<path class="st22" d="M207.4,163.1c0,0,26.1,15.7,34,16.1c7.9,0.4,11.2-6,9.3-9.8c-1.8-3.8-6.6-6.4-12.3-6.7
				c-5.8-0.3-29-5.4-29-5.4L207.4,163.1z"/>
		</g>
		<g>
			<g>
				<g>
					<g>
						<path class="st12" d="M44.5,348.2c1.1,0.7,8,3.9,10.6,5c2.3,1,4.7,1.8,7.1,2.3c2.4,0.5,5,0.6,7.5,0.4c0-0.1,0.1-0.1,0.1-0.2
							c0.2-0.1,0.3-0.2,0.5-0.3c1.1-0.9,1.6-2.5,1-3.8c-0.3-0.7-0.9-1.2-1.5-1.7c-0.7-0.6-1.5-1.1-2.2-1.7c-1.7-1.2-3.5-2.2-5.2-3.3
							c-1.6-1-3.2-2-4.7-3.1c-0.7-0.6-1.4-1.2-1.9-1.9c-0.2-0.3-0.5-0.7-0.5-1.1c0-0.4,0.2-0.8,0.1-1.2c-0.1-1.3-2.4-1.1-3.3-1
							c-0.7,0-1.5,0-2.1,0.3c-0.3,0.1-0.5,0.3-0.7,0.6c-0.2,0.3-0.3,0.7-0.7,0.6c-0.7-0.3-1.1-1-1.7-1.5c-0.5-0.4-1.1-0.7-1.7-0.8
							c-0.5-0.1-1.1-0.1-1.6,0.3c0,0,0,0,0,0c-1,3.2-1.8,6.8-1.3,10.2C42.7,346.7,44,347.9,44.5,348.2z"/>
					</g>
					<g>
						<path class="st12" d="M80.4,348.7c1.2,0.5,2.5,0.8,3.7,1.3c2.6,1,5,2.3,7.7,3.1c2.4,0.7,4.9,1.1,7.4,1.3
							c2.5,0.1,5-0.1,7.4-0.7c0-0.1,0.1-0.1,0.1-0.2c0.2-0.1,0.3-0.2,0.4-0.4c1-1,1.2-2.7,0.4-3.9c-0.4-0.6-1.1-1.1-1.7-1.5
							c-0.8-0.5-1.6-0.9-2.5-1.3c-1.9-0.9-3.8-1.6-5.6-2.5c-1.7-0.8-3.5-1.5-5.1-2.4c-0.8-0.5-1.5-1-2.2-1.6c-0.3-0.3-0.6-0.6-0.7-1
							c-0.1-0.4,0.1-0.8,0-1.2c-0.3-1.3-2.5-0.7-3.4-0.5c-0.7,0.1-1.5,0.2-2,0.6c-0.3,0.2-0.5,0.4-0.6,0.7c-0.1,0.3-0.1,0.8-0.6,0.6
							c-0.7-0.2-1.3-0.9-1.9-1.2c-0.5-0.3-1.1-0.6-1.8-0.6c-0.5,0-1.1,0.1-1.5,0.5c0,0,0,0,0,0c-0.5,3.4-0.8,7,0.2,10.2
							C78.6,348.5,79.8,348.5,80.4,348.7z"/>
					</g>
					<path class="st22" d="M86.9,185.3c-2,0-4-0.1-6-0.2c-8-0.4-16-1.6-23.6-4.1c-1.2-0.4-2.4-0.9-3.6-1.3c-0.8-1.5-1.3-2.7-1.4-2.9
						c-0.2-1.1-0.4-2.1-0.5-3.2c1-2.1-5.9-39.2-4.6-44.2c1-3.9-0.8-12.4,0.2-16.3c1.3-2.2,10.2-3.3,15.1-4.7
						c2.7-0.8,4.2-19,5.9-18.9c2.3,0.2,7.3,4.7,9.5,5.4c0.9,0.3,3,4.5,3.8,5.1c0.1,0.9-0.7,9.3-0.1,10.1c0.6,0.8,1.3,1.4,2.1,2.1
						c0.9,0.7,12.6,4.8,13.5,5.7c0.3,0.4,1,25.3,0,32.7c-1.9,14.1-2.6,21.2-6.8,31.4C90,181.9,87.2,185.3,86.9,185.3z"/>
					<path class="st21" d="M88.1,121.2c-1,2.1-2.6,3.7-4.7,4.8c-3.9,2.1-8.7,2.2-13.1,1.7c-4.4-0.5-8.5-2.4-11.8-5.2
						c-3.3-2.8-5.7-6.5-7.2-10.5c-0.1-0.3-0.2-0.5-0.3-0.8c3.4-1,8.3-1.8,11.5-2.8c2.7-0.8,4.2-19,5.9-18.9c2.3,0.2,7.3,4.7,9.5,5.4
						c0.9,0.3,3,4.5,3.8,5.1c0.1,0.9-0.7,9.3-0.1,10.1c0.6,0.8,1.3,1.4,2.1,2.1c0.4,0.3,3.1,1.4,5.9,2.5
						C89.4,116.8,89,119.1,88.1,121.2z"/>
					<path class="st25" d="M75.8,338.7C74,305.6,70.2,216,70.2,216s-9.4-19.4-7.9-24.5c1.6-5.1,26.6-7,26.6-7s4,10.6,6.3,20.1
						c1.8,7.3-3.5,121.8-4.4,134C89.7,338.5,83.9,342.4,75.8,338.7z"/>
					<path class="st3" d="M73.8,217.6L56.4,339.3c-1.7-0.9-7.6,2.8-13.8-2.3c-1.4-9.7,2.8-126,3.5-135.5c0.6-8.7,1.5-20.5,6.3-24.8
						c2.5,1.5,37.6,0.7,40.4,3c-0.1,3.5,0.4,15-3.7,20.2C85.6,204.3,73.8,217.6,73.8,217.6z"/>
					<path class="st35" d="M58.3,184.1c-0.4,4-0.8,8-1.5,12c-0.7,3.9-1.6,7.7-3.1,11.4c-1.3,3.3-3.2,6.5-5.8,9
						c-0.5,0.5-1,0.9-1.6,1.3c0.3-8.6,0.6-14.7,0.8-16.6c0.6-8.7,1.5-20.5,6.3-24.8c0.5,0.3,2.6,0.5,5.5,0.7
						C58.7,179.4,58.6,181.8,58.3,184.1z"/>
					<g>
						<path class="st22" d="M62.9,74.2c-1.1,5.2-1.3,10.5,0.9,15.4c2,4.6,5.6,8.6,9.8,11.3c4,2.6,8.9,4.4,13.7,3.6
							c4.7-0.8,9-4.1,11.5-8.1c1.6-2.6,1.8-5.4,1.9-8.4c0.1-1.6,0.1-3.2,0.4-4.8c0.3-1.6,0.9-3.1,1.5-4.6c1.1-2.7,2.2-5.6,2-8.6
							c-0.1-0.6-0.2-1.2-0.3-1.7c0-0.5-0.1-1.1-0.2-1.6c-0.7-4.6-3.1-6.5-6.9-9.3c-4.1-2.9-9.2-6.4-14.2-5.7
							c-5.2,0.8-10,3.7-13.4,7.8C66,63.7,64,69,62.9,74.2z"/>
						<g>
							<path class="st28" d="M96.3,86c0.3-0.7,0.8-1.3,1.4-1.1c0.1,0.1,0.2,0.2,0.3,0.3c0.3,0.4,0.4,0.8,0.3,1.3
								c0,0.7-0.2,1.4-0.5,2c-0.2,0.3-0.4,0.5-0.7,0.7c-0.3,0.1-0.7,0.1-0.9-0.1c-0.5-0.5-0.4-1.3-0.3-1.9
								C96,86.9,96.1,86.4,96.3,86z"/>
							<path class="st2" d="M97.6,85.9c0.1-0.1,0.2-0.2,0.3-0.3c0,0,0.1,0,0.1,0c0,0,0,0,0,0.1c0,0,0,0,0,0c0,0,0,0,0,0c0,0,0,0,0,0
								c0,0.1,0,0.2,0,0.2c0,0.2,0,0.4-0.1,0.5c0,0.1-0.1,0.1-0.2,0.2c-0.1,0-0.2,0-0.2,0c-0.1-0.1-0.1-0.3-0.1-0.5
								C97.5,86.1,97.5,86,97.6,85.9z"/>
						</g>
						<g>
							<path class="st28" d="M81.3,82.3c0.3-0.7,0.8-1.3,1.4-1.1c0.1,0.1,0.2,0.2,0.3,0.3c0.3,0.4,0.4,0.8,0.3,1.3
								c0,0.7-0.2,1.4-0.5,2c-0.2,0.3-0.4,0.5-0.7,0.7c-0.3,0.1-0.7,0.1-0.9-0.1c-0.5-0.5-0.4-1.3-0.3-1.9
								C80.9,83.3,81.1,82.8,81.3,82.3z"/>
							<path class="st2" d="M82.5,82.2c0.1-0.1,0.2-0.2,0.3-0.3c0,0,0.1,0,0.1,0c0,0,0,0,0,0.1c0,0,0,0,0,0c0,0,0,0,0,0c0,0,0,0,0,0
								c0,0.1,0,0.2,0,0.2c0,0.2,0,0.4-0.1,0.5c0,0.1-0.1,0.1-0.2,0.2c-0.1,0-0.2,0-0.2,0c-0.1-0.1-0.1-0.3-0.1-0.5
								C82.4,82.4,82.5,82.3,82.5,82.2z"/>
						</g>
						<path class="st36" d="M101.5,78.4c-0.7-0.1-1.4,0-2,0.2c-0.8,0.2-1.6,0.6-2.3,0.9c-0.6,0.3-1.3,0.7-1.9,1
							c-0.1-0.1-0.2-0.2-0.1-0.3c0.3-0.4,0.6-0.7,1-1.1c0.4-0.4,0.8-0.7,1.3-1.1c0.8-0.6,1.7-1,2.6-1.3c0.7-0.2,1.8-0.4,2.3,0.3
							c0.4,0.5,0.4,1.2,0.3,1.8c0,0.1,0,0.1,0,0.1c0,0,0,0.1,0,0.1C102.4,78.8,102,78.5,101.5,78.4z"/>
						<path class="st36" d="M85.5,76.4c-1.1-0.4-2.2-0.8-3.3-1.2c-1.9-0.6-3.7-1.2-5.6-1.6c0.4-0.4,1.1-0.6,1.6-0.8
							c1.8-0.6,3.5-0.1,5.1,0.8c0.9,0.5,1.8,1.1,2.7,1.8c0.5,0.4,0.9,0.7,1.3,1.2c0.1,0.1,0.2,0.3,0.4,0.4c0,0.1,0.1,0.1,0.1,0.2
							c0,0,0,0,0,0C86.9,77,86.2,76.7,85.5,76.4z"/>
						<path class="st22" d="M90.1,93.6c0.9-0.3,1.8-0.5,2.6-1.1c0.1-0.1,0.3-0.3,0.4-0.4c0.1-0.2,0-0.5-0.1-0.7
							c-0.1-0.5-0.3-0.9-0.4-1.4c-0.2-0.9-0.4-1.7-0.5-2.6c0-0.2,0.1-0.4,0.1-0.6c0.2,1.2,0.4,2.4,0.8,3.5c0.2,0.8,0.8,1.7,0.3,2.5
							c-0.4,0.7-1.3,1-2,1.1c-0.2,0-0.5,0.1-0.7,0.2c-0.3,0-0.7,0.1-1,0.1C89.7,94,89.9,93.8,90.1,93.6z"/>
						<path class="st2" d="M89.6,100.2c0,0-5.9-1.9-10.2-5c0,0-0.7,2.4,3.4,4.3C86.9,101.4,89.6,100.2,89.6,100.2z"/>
						<path class="st36" d="M61,57.2c1.7-2.2,4.1-3.9,6.7-5c2.6-1.1,5.4-1.6,8.3-1.5c0.5-0.6,1.1-1,1.8-1.4c2.5-0.9,5.4-0.5,8,0.4
							c2.9,1,5.6,2.5,8.3,3.9c3.3,1.7,6.5,3.6,10,5.1c1.9,0.8,4.2,0.8,5.9,2c2.6,2,3.6,5.8,2.2,8.8c-3,6.5-12.3,4.5-17.3,2.2
							c-2.4-1.1-4.7-2.3-7-3.6c-1.6-0.8-3.3-1.9-4.5-3.2c-3.5,1.7-6.7,4.1-9.6,6.7c-2.9,2.7-5.5,5.8-7.4,9.3
							c-0.6,1.1-1.1,2.1-1.4,3.3c-0.3,1.1-0.6,2.2-1,3.3c-0.1,0.3-0.4,0.1-0.6,0c-0.5-0.5-0.6-1.2-0.7-1.8c-0.1-0.8-0.4-1.6-0.6-2.5
							c-0.5-1.8-1.2-3.6-1.9-5.3c-0.7-1.7-1.4-3.4-1.7-5.2c-0.4-1.9-0.6-3.8-0.5-5.8C57.9,63.4,58.9,60,61,57.2z"/>
						<path class="st22" d="M59.3,81.4c0.1,2.4,0.6,4.7,2.2,6.5c0.7,0.8,1.7,1.6,2.8,1.4c1.2-0.3,1.4-1.9,1.5-2.9
							c0.2-1.4,0.3-2.8,0.2-4.2c-0.1-0.6-0.2-1.2-0.4-1.8c0-0.5-0.1-0.9-0.2-1.3c-0.3-1.4-1-3.4-2.7-3.7c-1.3-0.2-2.4,0.9-2.9,2
							C59.4,78.7,59.3,80.1,59.3,81.4z"/>
						<path class="st22" d="M60.7,78.7c0.4-0.5,1-0.5,1.5-0.1c0.7,0.5,1,1.3,1.3,2.1c0.3,0.8,0.4,1.7,0.4,2.5c0.1,1.2,0,2.6-0.4,3.8
							c-0.1,0.2-0.4,0-0.3-0.2c0.1-0.8,0.3-1.5,0.3-2.2c-0.1,0-0.2-0.1-0.3-0.1c-0.1-0.1-0.3-0.2-0.4-0.3c-0.3-0.2-0.5-0.5-0.7-0.7
							c-0.4-0.5-0.6-1.1-0.9-1.6c-0.1-0.1,0.1-0.2,0.2-0.1c0.3,0.5,0.6,1,0.9,1.4c0.2,0.2,0.4,0.4,0.6,0.6c0.1,0.1,0.2,0.2,0.3,0.2
							c0.1,0,0.2,0.1,0.2,0.1c0-0.3,0-0.7,0-1.1c-0.1-0.9-0.2-1.9-0.6-2.7c-0.2-0.6-0.8-1.8-1.6-1.6c-0.6,0.2-0.9,1.1-0.9,1.7
							c0,0.1-0.1,0-0.1,0C60.2,79.8,60.3,79.2,60.7,78.7z"/>
					</g>
					<path class="st24" d="M84.4,111.9c0,0,3.3,6.1-7.4,7.1c-10.7,1-15.5-11.2-15.5-11.2s-7.9,0.9-12.6,2.6
						c-4.7,1.7-8.2,5.9-8.2,5.9l0.6,91.2c0,0,12.9,3.8,32,3.2c19.3-0.5,23.5-5.8,23.5-5.8s4.7-56.1,3.7-68.9
						c-1.1-12.8-3-19.1-3-19.1L84.4,111.9z"/>
					<path class="st23" d="M97.6,116.8c0,0,2.5,0.9,6.5,5.1c4,4.2,17.9,34,17.9,34s-6.8,12.7-22.3,9.1l0.6-11
						C100.4,154,100.4,125.4,97.6,116.8z"/>
					<polygon class="st21" points="35.3,156 36.7,166.7 51,165.5 50.2,153.1 					"/>
					<g>
						<path class="st22" d="M76.4,164.3c1.6-2.6,4-3.1,6.8-3.8c1.1-0.3,2.1-0.5,3.2-0.8c0.9-0.2,1.9-0.5,2.8-0.5
							c0.4,0,0.7,0,1.1,0.1c0.9,0.1,1.7,0.2,2.6,0.3c1.1,0.2,2.2,0.4,3.4,0.7c0.9,0.2,1.8,0.5,2.7,0.9c0.9,0.4,1.6,0.9,2.2,1.6
							c0.5,0.5,1.2,1,1.6,1.6c0.2,0.2,0.4,0.5,0.3,0.8c0,0.3-0.3,0.4-0.5,0.5c-0.3,0.1-0.6,0.1-0.9,0.1c-1.5-0.3-2.7-1.2-4-1.9
							c-0.4-0.2-0.9-0.4-1.3-0.5c-0.7-0.2-1.4-0.4-2.1-0.4c-0.5-0.1-1-0.1-1.4-0.1c0.1,0.1,0.3,0.1,0.4,0.2c0.7,0.3,1.3,0.7,1.9,1.1
							c0.6,0.4,1.2,0.7,1.8,1.2c0,0,0,0,0,0c0.4,0.3,0.8,0.6,1.2,0.9c0.7,0.6,1.2,1.4,1.7,2.2c0.2,0.3,0.4,0.6,0.6,0.9
							c0.4,0.4,0.7,0.8,1,1.2c0.3,0.4,0.7,0.9,0.8,1.5c0.1,0.6-0.5,0.8-1,0.8c-0.9,0-1.5-0.7-2-1.4c-0.6-0.9-1.3-1.7-2.1-2.4
							c-0.8-0.7-1.7-1.3-2.8-1.6c0,0-0.1,0-0.1,0c0.1,0,0.1,0.1,0.2,0.1c0.4,0.3,0.7,0.7,1,1.2c0.7,1.1,1.5,2.2,2.2,3.3
							c0.4,0.6,0.8,1.1,1.2,1.6c0.3,0.4,1.8,2.3,0.6,2.4c-0.3,0-0.7-0.1-1-0.3c-0.4-0.2-0.8-0.5-1.1-0.8c-0.7-0.7-1.3-1.5-1.9-2.4
							c-0.3-0.5-0.6-0.9-0.9-1.3c-0.5-0.5-1.1-0.9-1.7-1.2c-1-0.4-2.1-0.7-3.1-0.9c0.4,0.2,0.7,0.3,1.1,0.5c1.5,0.7,2.3,1.9,3.3,3.3
							c0.5,0.6,1.1,1.1,1.5,1.8c0.3,0.4,0.5,1,0.1,1.4c-0.3,0.3-0.8,0.1-1.1,0c-1.1-0.6-1.8-1.5-2.7-2.4c-1-1-2.2-1.6-3.4-2.3
							c-1-0.6-1.3,0.3-2,0.7c-1.8,1-3.9,0.6-5.7-0.1c-1.6-0.6-3.9-1.3-4.9-2.8C74.9,167.6,75.6,165.7,76.4,164.3z"/>
						<g>
							<g>
								<path class="st22" d="M70.2,170.5c-1.9,0-3.9,0.1-5.8,0.2c-2.8,0.1-5.6,0.4-8.4,0.5c-2.8,0.1-5.7,0.2-8.5,0.1
									c-1.4,0-2.7-0.1-4.1-0.2c-1.4-0.1-2.7-0.3-4-1c-1.9-1-3.1-3.1-3-5.3c0.1-1,0.4-1.9,1-2.6c0.7-0.8,1.6-1.4,2.6-1.8
									c1.9-0.9,4-1.4,6.1-1.7c2.2-0.2,4.4-0.2,6.6-0.1c8.9,1.9,25.5,4.3,25.5,4.3l-0.2,6.3C78,169.3,74.8,169.8,70.2,170.5z"/>
							</g>
						</g>
					</g>
					<g>
						<path class="st23" d="M30.1,150.9c0.7-4,1.6-7.9,2.6-11.8c1-3.9,2-7.7,3.2-11.5c1.1-3.5,2.4-7.1,4.1-10.4
							c1.3-2.4,3.5-5.2,6.6-4.2c2.4,0.8,8.8,5.1,8.8,14.8c0,3.6-2.4,27.5-2,30.6c-3.7,0.6-15.1,2.4-24.6,0.7
							C29.2,156.5,29.6,153.7,30.1,150.9z"/>
					</g>
				</g>
				<g>
					<path class="st22" d="M92,181.6c1.3,0.5,2.5,1.1,3.8,1.6c1.3,0.5,2.5,1.1,3.8,1.5c1.2,0.4,2.4,0.4,3.7,0.5
						c1.4,0,2.7,0.1,4.1,0.1c2.6-0.1,5-0.3,7.4-1.3c2.3-0.9,4.4-2.2,6.5-3.5c0.8-0.5,1.6-1,2.3-1.5c0.2-0.1,1-0.6,0.9-0.9
						c-0.1-0.6-5.7-0.1-6.1-0.3c-1.3-0.5-2.8-0.5-4.2-0.5c-2.8,0-5.6-0.1-8.3,0.3c-2.7,0.3-5.4,0.7-8.1,0.8c-1.4,0-2.8,0-4.2,0.1
						c-1.2,0-2.7,0.1-3.7,0.6C88,179.9,91.4,181.4,92,181.6z"/>
					<g>
						<path class="st21" d="M95.9,179.2c0.5-0.9,2-1,2.9-0.8c0.9-0.6,2.4-0.4,3.4-0.3c1.5,0.1,2.9,0.4,4.3,0.8
							c1.7,0.4,3.4,0.8,5.1,0.8c1.6-0.1,3.2-0.4,4.9-0.3c0,0,0.1,0.1,0,0.1c-1.3,0-2.5,0.3-3.8,0.5c-1.2,0.2-2.5,0.1-3.7-0.1
							c-1.3-0.2-2.6-0.6-3.8-0.9c-1.3-0.3-2.5-0.5-3.8-0.5c-0.5,0-3.5,0.1-2.6,1.2c0.3,0.4,1.1,0.5,1.6,0.7c0.7,0.2,1.3,0.3,2,0.5
							c2.5,0.8,4.9,1.7,7.4,2.4c1.1,0.3,2.3,0.5,3.5,0.4c1.2,0,2.4-0.2,3.4-0.8c0.1-0.1,0.3,0.1,0.2,0.2c-1.8,1.3-4.1,1.2-6.2,0.8
							c-2.8-0.6-5.5-1.8-8.3-2.7c-0.7-0.2-1.4-0.4-2.1-0.6c-0.5-0.1-1-0.3-1.5-0.6c-0.4-0.3-0.6-0.9-0.3-1.3
							c-1.2-0.2-3.1,0.5-2.2,1.9c0.4,0.5,0.9,0.9,1.5,1.3c0.7,0.5,1.5,0.9,2.3,1.3c1.5,0.7,3.1,1.2,4.7,1.5c0,0,0,0,0,0c0,0,0,0,0,0
							c0.1,0,0.2,0,0.4,0.1c1.8,0.2,3.6,0,5.3,0.2c0,0,0,0,0,0c-1.7,0-3.3,0.2-5,0c-0.3,0-0.6-0.1-0.8-0.1c-0.3,0-0.5,0.1-0.8,0.2
							c-0.3,0.1-0.6,0.1-1,0c-0.7,0-1.4,0-2.1-0.1c-1-0.1-2.3-0.3-3-1c-0.1-0.1,0-0.1,0.1-0.1c0.5,0.2,1,0.5,1.6,0.6
							c0.5,0.1,1.1,0.2,1.6,0.3c0.7,0,1.3,0.1,2,0.1c0.3,0,0.6,0,0.8-0.1c-1.1-0.2-2.1-0.6-3.2-1c-1.3-0.6-2.6-1.3-3.8-2.2
							C96.3,181.1,95.4,180.2,95.9,179.2z"/>
					</g>
					<g>
						<g>
							
								<rect x="66.2" y="175.6" transform="matrix(-1 -1.224647e-16 1.224647e-16 -1 182.2879 353.956)" class="st37" width="49.9" height="2.8"/>
							
								<rect x="86.6" y="177" transform="matrix(-1 -1.224647e-16 1.224647e-16 -1 188.8134 354.6659)" class="st38" width="15.6" height="0.7"/>
							<polygon class="st37" points="105.3,178.4 139,178.4 154.9,118.3 121.2,118.3 							"/>
							<polygon class="st38" points="106.4,178.4 140.1,178.4 156.1,118.3 122.3,118.3 							"/>
						</g>
					</g>
				</g>
			</g>
		</g>
	</g>
	<g>
		<g>
			<ellipse class="st1" cx="31.5" cy="58.5" rx="23.8" ry="23.2"/>
			<polygon class="st1" points="51.5,82.5 46.1,73.1 38.6,78.3 			"/>
		</g>
		<g>
			<path class="st2" d="M17.3,53.1h28.1c0.6,0,1.1-0.5,1.1-1.1v-0.3c0-0.6-0.5-1.1-1.1-1.1H17.3c-0.6,0-1.1,0.5-1.1,1.1V52
				C16.3,52.6,16.7,53.1,17.3,53.1z"/>
			<path class="st2" d="M17.3,57.4h28.1c0.6,0,1.1-0.5,1.1-1.1v-0.3c0-0.6-0.5-1.1-1.1-1.1H17.3c-0.6,0-1.1,0.5-1.1,1.1v0.3
				C16.3,56.9,16.7,57.4,17.3,57.4z"/>
			<path class="st2" d="M17.3,61.7h28.1c0.6,0,1.1-0.5,1.1-1.1v-0.3c0-0.6-0.5-1.1-1.1-1.1H17.3c-0.6,0-1.1,0.5-1.1,1.1v0.3
				C16.3,61.2,16.7,61.7,17.3,61.7z"/>
		</g>
	</g>
	<g>
		<g>
			<ellipse class="st1" cx="253.8" cy="85.7" rx="23.8" ry="23.2"/>
			<polygon class="st1" points="233.8,109.7 239.2,100.3 246.7,105.5 			"/>
		</g>
		<path class="st2" d="M260.3,84.3c-0.8-0.5-1.9-0.9-3.4-1.3c-0.3-0.1-0.7-0.2-1.1-0.3c-3.2-0.7-3.2-0.7-3.8-0.9
			c-0.9-0.4-1.3-1-1.3-1.8c0-1.3,1.2-2.2,2.9-2.2c1.9,0,2.9,0.6,3.3,2c0.1,0.2,0.1,0.3,0.1,0.5l5.8-0.6c-0.4-1.6-0.7-2.4-1.4-3.3
			c-1-1.4-2.6-2.3-4.6-2.8V71h-6.2v2.7c-3.5,0.9-5.7,3.2-5.7,6.5c0,2.2,0.9,4.1,2.7,5.3c0.8,0.6,1.5,0.9,3,1.3
			c0.4,0.1,0.9,0.2,1.4,0.3c2.9,0.7,3.6,0.9,4.1,1.1c0.3,0.1,0.5,0.3,0.7,0.5c0.3,0.4,0.5,0.9,0.5,1.4c0,0.6-0.2,1-0.5,1.4
			c-0.6,0.7-1.5,1-2.9,1c-1.4,0-2.6-0.5-3.2-1.3c0-0.1-0.1-0.1-0.1-0.2c-0.3-0.5-0.5-1-0.6-1.9l-5.7,0.6c0.2,1.3,0.3,1.9,0.6,2.6
			c0.6,1.6,1.6,2.8,3,3.5c0.7,0.4,1.7,0.8,2.7,1v2.7h6.2v-2.6c1.8-0.3,3.3-1,4.4-2.1c1.3-1.2,1.9-3,1.9-5.1
			C263.2,87.4,262.2,85.5,260.3,84.3z"/>
	</g>
</g>
</svg>
