<?xml version="1.0" encoding="UTF-8"?>
<svg id="Capa_2" data-name="Capa 2" xmlns="http://www.w3.org/2000/svg" viewBox="0 0 484.48 484.29">
  <defs>
    <style>
      .cls-1 {
        fill: #5d5d5d;
      }
    </style>
  </defs>
  <g id="Capa_1-2" data-name="Capa 1">
    <path d="m249.47,426.96c32.75-1.42,63.1-10.74,90.77-28.22,24.85-15.7,44.88-36.2,60.06-61.5,12.39-20.66,21.01-42.57,24.22-66.5-1.26-.23-2.53-.68-3.8-.68-46.25-.04-92.5-.04-138.75,0-1.27,0-2.54.43-3.8.67-7.18,3.04-11.69,9.81-19.08,12.85-27.17,11.18-55.62-4.49-60.82-32.53-4.71-25.36,7.58-44.9,32.2-51.75,16.64-4.63,32.1-.39,44.32,12.6,1.05,1.12,1.52,2.49,3.35,2.13,68.09.06,136.17.12,204.26.18,3.19,21.76,2.58,43.71-.99,65.13-4.56,27.37-13.63,53.43-26.98,78.23-17.95,33.34-42.54,60.48-72.85,82.3-26.83,19.32-56.79,32.44-89.55,38.95-15.22,3.02-30.43,4.29-45.89,5.19-23.22,1.36-45.75-2.29-67.83-7.79-18.47-4.59-36.02-12.61-52.91-21.76-25.26-13.68-47.08-31.61-65.95-53.08-22.97-26.15-38.95-56.13-49.46-89.37C1.36,284.69-.75,256.88.22,228.62c1.08-31.71,9.51-61.57,22.92-90.24,12.37-26.45,29.22-49.62,50.09-69.91C107.29,35.35,148.05,14.53,194.33,4.74,215.3.31,236.85-.99,258.24.74c22.72,1.84,45.26,6.04,66.61,14.08,24.2,9.11,46.88,21.54,67.22,37.65,27.79,22.01,49.65,49,65.73,80.62,7.83,15.4,13.24,31.62,18.35,48.1,2.88,9.28-2.14,6.88-6.61,6.89-15.48.03-30.97-.03-46.45.06-2.75.02-4.31-.42-5.35-3.52-10.82-32.24-28.86-59.68-54.79-81.91-20.57-17.63-43.5-30.27-69.83-37.61-19.77-5.5-39.65-8.12-59.9-7.57-15.93.43-31.66,3.42-46.95,8.22-34.57,10.86-63.47,30.43-86.78,57.89-13.11,15.44-23.39,33.01-30.87,51.83-7.09,17.86-9.64,36.95-12.4,55.89-.2,1.35.46,2.83.71,4.24-.96,4.64-.93,9.29.02,13.93.21,9.95,1.83,19.7,3.59,29.48,3.63,20.18,11.17,38.81,21.4,56.44,10.17,17.52,22.91,32.92,38.12,46.35,20.85,18.41,45.28,30.39,71.42,38.79,13.42,4.32,27.55,6.33,41.79,6.6,5.41.49,10.82,1.1,16.2-.24Z"/>
    <path class="cls-1" d="m338.13,188.19c-10.27,0-20.56-.31-30.82.1-8.29.33-11.22-7.06-16.22-10.94-17.59-13.67-37.49-17.64-58.79-15.88-20.45,1.7-37.45,11.2-51.18,26.31-18.74,20.62-24.14,45.53-18.62,71.76,6.27,29.8,24.9,50.31,54.5,59.85,24.76,7.98,47.98,3.39,70.14-8.91,2.71-1.51,5.54-3.56,7.2-6.08,6.22-9.47,15.54-8.64,24.94-8.51,14.65.21,29.3.08,43.96.03,2.96-.01,4.8-.17,2.81,3.91-17.75,36.49-45.72,61.04-84.56,73.2-28.61,8.96-57.21,8.14-85.28-1.49-15.43-5.29-29.19-13.93-42.07-24.47-22.57-18.46-37-41.7-44.54-69.3-6.99-25.58-6.59-51.18,1.88-76.64,7.53-22.61,19.02-42.67,36.66-58.72,21.7-19.76,47.01-32.25,76.46-36.14,24.04-3.17,47.22.18,69.37,9.23,11.96,4.89,22.56,12.4,33.09,20.41,16.45,12.51,27.92,28.12,37.63,45.64.9,1.62,1.22,3.55,1.81,5.34-1.63.16-3.26.45-4.9.46-7.83.05-15.65.02-23.48.02,0,.27,0,.55,0,.82Z"/>
    <path class="cls-1" d="m482.4,214.21c-68.09-.06-136.17-.12-204.26-.18,1.45-.2,2.9-.57,4.35-.57,65.23-.03,130.47-.04,195.7,0,1.4,0,2.8.49,4.2.75Z"/>
    <path class="cls-1" d="m278.17,270.73c1.27-.23,2.54-.67,3.8-.67,46.25-.03,92.5-.03,138.75,0,1.27,0,2.53.45,3.8.68-48.78,0-97.56-.01-146.35-.01Z"/>
    <path class="cls-1" d="m249.47,426.96c-5.38,1.34-10.79.72-16.2.24,5.4-.08,10.8-.16,16.2-.24Z"/>
    <path class="cls-1" d="m56.96,249.54c-.95-4.64-.98-9.29-.02-13.93,0,4.65.01,9.29.02,13.93Z"/>
  </g>
</svg>